# xmcd
#
# Track frame offsets:
#	150
#	20974
#	36864
#	53676
#	65311
#	81620
#	100002
#	113520
#	128224
#	145823
#	164436
#	177803
#	192048
#	209106
#	228780
#
# Disc length: 3226 seconds
#
# Revision: 1
# Processed by: cddbd v1.5.2PL0 Copyright (c) Steve Scherf et al.
# Submitted via: audiograbber 1.83.01
#
DISCID=ce0c980f
DTITLE=Various Artist - Nu Country Traxx 015
DYEAR=2000
DGENRE=Country
TTITLE0=Anita Cochran - You With Me
TTITLE1=Lonestar - What About Now
TTITLE2=Collin Raye - Bobbie Eakes - Tired Of Loving This Way
TTITLE3=Joanie Keller - Grindin' Wheel
TTITLE4=Sara Evans - Born To Fly
TTITLE5=Travis Tritt - Best Of Intentions
TTITLE6=Lonesome River Band - The Crime I Didn't Do
TTITLE7=Kathy Mattea - BFD
TTITLE8=Billy Ray Cyrus - You Won't Be Lonely Now
TTITLE9=Lisa Angelle - A Woman Gets Lonely
TTITLE10=Randy Travis - I'll Be Right Here Loving You
TTITLE11=Terri Clark - A Little Gasoline
TTITLE12=Seldom Scene - One Step Up
TTITLE13=Donna The Buffalo - No Place Like The Right Time
TTITLE14=Confederate Railroad - Toss A Little Bone
EXTD=
EXTT0=
EXTT1=
EXTT2=
EXTT3=
EXTT4=
EXTT5=
EXTT6=
EXTT7=
EXTT8=
EXTT9=
EXTT10=
EXTT11=
EXTT12=
EXTT13=
EXTT14=
PLAYORDER=
